<svg xmlns="http://www.w3.org/2000/svg" viewBox="0 0 143 138" enable-background="new 0 0 143 138"><style type="text/css">.st0{fill:none;} .st1{fill:#5ABF8D;}</style><path class="st0" d="M97.9 54.7c-22.3 0-22.3 22.2-22.3 22.3 0 0-1.5 22.2 22.3 22.2 0 0 19.9 1.1 19.9-15.4h-10.2s.3 6.2-9.3 6.2c0 0-10.2.7-10.2-10.1h30.1s3.2-25.2-20.3-25.2zm-9.9 17.5s1.2-9 10.2-9l8.9 9h-19.1zm-25.5-5.7s8.9-.7 8.9-11-7.3-15.5-16.5-15.5h-30.2v58h30.2s18.4.6 18.4-17.1c0 0 .9-14.4-10.8-14.4zm-24.5-16.2h16.9s4.1 0 4.1 6-2.4 6.9-5.2 6.9h-15.8v-12.9zm16.1 37.4h-16.1v-15.5h16.9s6.1-.1 6.1 8c0 6.7-4.5 7.4-6.9 7.5z"/><path class="st1" d="M59 56.3c0-6-4.1-6-4.1-6h-16.9v13h15.8c2.8-.1 5.2-.9 5.2-7zm-4.1 15.9h-16.9v15.5h16.1c2.4-.1 6.9-.8 6.9-7.5 0-8.1-6.1-8-6.1-8zm43.3-9c-9 0-10.2 9-10.2 9h19s.1-9-8.8-9z"/><path class="st0" d="M62.5 66.5s8.9-.7 8.9-11-7.3-15.5-16.5-15.5h-30.2v58h30.2s18.4.6 18.4-17.1c0 0 .9-14.4-10.8-14.4zm35.4-11.8c-22.3 0-22.3 22.2-22.3 22.3 0 0-1.5 22.2 22.3 22.2 0 0 19.9 1.1 19.9-15.4h-10.2s.3 6.2-9.3 6.2c0 0-10.2.7-10.2-10.1h30.1s3.2-25.2-20.3-25.2z"/><path class="st1" d="M128.1 5.3h-113.2c-4.4 0-7.9 3.5-7.9 7.9v111.6c0 4.4 3.5 7.9 7.9 7.9h113.2c4.4 0 7.9-3.5 7.9-7.9v-111.6c0-4.4-3.5-7.9-7.9-7.9zm-42.6 38.1h24v7.1h-24v-7.1zm-12.2 37.5c0 17.7-18.4 17.1-18.4 17.1h-30.2v-58h30.2c9.2 0 16.4 5.1 16.4 15.5 0 8.7-8.9 11-8.9 11 11.8 0 10.9 14.4 10.9 14.4zm44.9-1h-30.1c0 10.8 10.2 10.1 10.2 10.1 9.6 0 9.3-6.2 9.3-6.2h10.2c0 16.6-19.9 15.4-19.9 15.4-23.8 0-22.3-22.2-22.3-22.2 0-.1 0-22.3 22.3-22.3 23.5 0 20.3 25.2 20.3 25.2z"/></svg>