<?xml version="1.0" encoding="utf-8"?>
<!-- Generator: Adobe Illustrator 20.1.0, SVG Export Plug-In . SVG Version: 6.00 Build 0)  -->
<svg version="1.1" id="Layer_1" xmlns="http://www.w3.org/2000/svg" xmlns:xlink="http://www.w3.org/1999/xlink" x="0px" y="0px"
	 viewBox="0 0 143 138" style="enable-background:new 0 0 143 138;" xml:space="preserve">
<style type="text/css">
	.st0{fill:none;}
	.st1{fill:#5ABF8D;}
</style>
<path class="st0" d="M97.9,54.7c-22.3,0-22.3,22.2-22.3,22.3c0,0-1.5,22.2,22.3,22.2c0,0,19.9,1.1,19.9-15.4h-10.2
	c0,0,0.3,6.2-9.3,6.2c0,0-10.2,0.7-10.2-10.1h30.1C118.2,79.9,121.4,54.7,97.9,54.7z M88,72.2c0,0,1.2-9,10.2-9l8.9,9H88z
	 M62.5,66.5c0,0,8.9-0.7,8.9-11S64.1,40,54.9,40H24.7v58h30.2c0,0,18.4,0.6,18.4-17.1C73.3,80.9,74.2,66.5,62.5,66.5z M38,50.3h16.9
	c0,0,4.1,0,4.1,6s-2.4,6.9-5.2,6.9H38C38,63.2,38,50.3,38,50.3z M54.1,87.7H38V72.2h16.9c0,0,6.1-0.1,6.1,8
	C61,86.9,56.5,87.6,54.1,87.7z"/>
<path class="st1" d="M59,56.3c0-6-4.1-6-4.1-6H38v13h15.8C56.6,63.2,59,62.4,59,56.3z M54.9,72.2H38v15.5h16.1
	c2.4-0.1,6.9-0.8,6.9-7.5C61,72.1,54.9,72.2,54.9,72.2z M98.2,63.2c-9,0-10.2,9-10.2,9h19C107,72.2,107.1,63.2,98.2,63.2z"/>
<path class="st0" d="M62.5,66.5c0,0,8.9-0.7,8.9-11S64.1,40,54.9,40H24.7v58h30.2c0,0,18.4,0.6,18.4-17.1
	C73.3,80.9,74.2,66.5,62.5,66.5z M97.9,54.7c-22.3,0-22.3,22.2-22.3,22.3c0,0-1.5,22.2,22.3,22.2c0,0,19.9,1.1,19.9-15.4h-10.2
	c0,0,0.3,6.2-9.3,6.2c0,0-10.2,0.7-10.2-10.1h30.1C118.2,79.9,121.4,54.7,97.9,54.7z"/>
<path class="st1" d="M128.1,5.3H14.9C10.5,5.3,7,8.8,7,13.2v111.6c0,4.4,3.5,7.9,7.9,7.9h113.2c4.4,0,7.9-3.5,7.9-7.9V13.2
	C136,8.8,132.5,5.3,128.1,5.3z M85.5,43.4h24v7.1h-24V43.4z M73.3,80.9C73.3,98.6,54.9,98,54.9,98H24.7V40h30.2
	c9.2,0,16.4,5.1,16.4,15.5c0,8.7-8.9,11-8.9,11C74.2,66.5,73.3,80.9,73.3,80.9z M118.2,79.9H88.1C88.1,90.7,98.3,90,98.3,90
	c9.6,0,9.3-6.2,9.3-6.2h10.2c0,16.6-19.9,15.4-19.9,15.4C74.1,99.2,75.6,77,75.6,77c0-0.1,0-22.3,22.3-22.3
	C121.4,54.7,118.2,79.9,118.2,79.9z"/>
</svg>
