<svg xmlns="http://www.w3.org/2000/svg" width="82.21465in" height="94.23235in" viewBox="0 0 5919.45513 6784.72942">
  <defs>
    <style>
      .cls-1 {
        fill: none;
        stroke: #e2e2e2;
        stroke-linejoin: round;
        stroke-width: 46.77589px;
      }
    </style>
  </defs>
  <title>Asset 3</title>
  <g id="Layer_2" data-name="Layer 2">
    <g id="Layer_1-2" data-name="Layer 1">
      <g>
        <polygon class="cls-1" points="23.388 1673.309 2833.663 23.388 5842.084 1526.765 3615.392 1022.775 2554.48 731.751 23.388 1673.309"/>
        <polyline class="cls-1" points="49.687 4897.014 45.851 4450.63 233.969 4595.428"/>
        <path class="cls-1" d="M2358.61236,3155.81072,3037.87374,3472.29,1976.07736,3445.8358H967.21449L23.38795,1673.30852,446.43367,4336.32535,45.85105,4450.6296,23.38795,1673.30852l2057.44456-68.27633,400.32966-6.51759,73.31795-866.7639,470.91774,831.89846-544.23569,34.86545L2358.61236,3155.81072,1145.2757,3862.98659,1475.9722,4334.982l1059.86955-17.66662L1986.2575,5244.3822l795.684,1516.95927L3967.97606,5303.65415,3037.87374,3472.29l483.07163-977.0875,609.8974,908.88682,537.45878,946.4488s1185.27832,764.6553,1226.35819,727.49051-830.74635-1593.063-830.74635-1593.063l-958.167-1868.24586-490.35421-593.94517L2833.66343,23.38795,2554.48011,731.75069,446.43367,4336.32535,233.96886,4595.42791,49.68721,4897.014,2781.94152,6761.34147,5894.65974,5078.0286,3967.97606,5303.65415l700.3255-953.11607,395.61184-865.57248L5842.08376,1526.765l-1736.33741,89.95471s-1124.50314-119.87667-1080.3485-53.0706,495.54752,931.55332,495.54752,931.55332l584.801-878.48272"/>
        <polygon class="cls-1" points="3037.874 3472.29 4668.302 4350.538 3490.505 4363.518 2535.842 4317.315 3037.874 3472.29"/>
        <polyline class="cls-1" points="3037.874 3472.29 4130.843 3404.089 5063.913 3484.966"/>
        <polyline class="cls-1" points="3967.976 5303.654 1986.257 5244.382 1475.972 4334.982 446.434 4336.325 1145.276 3862.987 967.214 3445.836"/>
        <polyline class="cls-1" points="446.434 4336.325 2781.942 6761.341 233.969 4595.428"/>
        <path class="cls-1" d="M49.68721,4897.014l756.644,169.10623s352.03818,68.15793,413.59441,73.34113S1986.2575,5244.3822,1986.2575,5244.3822"/>
        <line class="cls-1" x1="5842.08376" y1="1526.76504" x2="5894.65974" y2="5078.0286"/>
      </g>
    </g>
  </g>
</svg>
