<svg xmlns="http://www.w3.org/2000/svg" width="2.6364in" height="3.0195in" viewBox="0 0 189.8239 217.402"><defs><style>.cls-1{fill:none;stroke:#494c4d;stroke-linecap:square;stroke-linejoin:bevel;stroke-width:1.5px;}</style></defs><title>Asset 3</title><g id="Layer_2" data-name="Layer 2"><g id="Layer_1-2" data-name="Layer 1"><polygon class="cls-1" points="0.75 53.58 90.869 0.671 187.343 48.881 115.938 32.719 81.917 23.387 0.75 53.58"/><polyline class="cls-1" points="1.593 156.957 1.47 142.643 7.503 147.286"/><path class="cls-1" d="M75.6355,101.1208,97.4179,111.27l-34.0495-.8483H31.0164L.75,53.58l13.5661,85.3971L1.47,142.6428.75,53.58l65.9777-2.1895,12.8377-.209,2.3511-27.7952L97.0178,50.0637,79.5654,51.1817l-3.93,49.9391-38.909,22.6776,10.6047,15.1359,33.9877-.5665-17.624,29.729,25.5158,48.6455,38.0335-46.7448L97.4179,111.27l15.491-31.333,19.5581,29.146,17.2351,30.3505s38.0093,24.5208,39.3266,23.329-26.64-51.086-26.64-51.086L131.6622,51.7655,115.9377,32.719,90.8693.6709,81.9165,23.3865l-67.6,115.5908-6.8133,8.3088-5.91,9.6712,87.6174,59.7849,99.818-53.98-61.7845,7.2353,22.4579-30.5643,12.6864-27.757,24.9542-62.7952-55.6805,2.8846s-36.06-3.8442-34.6444-1.7019S112.909,79.9366,112.909,79.9366l18.7533-28.171"/><polygon class="cls-1" points="97.418 111.27 149.702 139.433 111.933 139.849 81.319 138.368 97.418 111.27"/><polyline class="cls-1" points="97.418 111.27 132.467 109.083 162.389 111.676"/><polyline class="cls-1" points="127.244 169.997 63.695 168.097 47.331 138.934 14.316 138.977 36.726 123.798 31.016 110.421"/><polyline class="cls-1" points="14.316 138.977 89.211 216.742 7.503 147.286"/><path class="cls-1" d="M1.5933,156.9574,25.8572,162.38s11.2891,2.1857,13.2631,2.3519,24.5746,3.3646,24.5746,3.3646"/><line class="cls-1" x1="187.3428" y1="48.8809" x2="189.0288" y2="162.7621"/></g></g></svg>