<svg xmlns="http://www.w3.org/2000/svg" width="82.215in" height="94.232in" viewBox="0 0 5919.45513 6784.72942"><defs><style>.cls-1 { fill: none; stroke: #f2f2f2; stroke-linejoin: round; stroke-width: 46.77589px; }</style></defs><title>Asset 3</title><g id="Layer_1-2"><path class="cls-1" d="M23.388 1673.309l2810.275-1649.921 3008.421 1503.377-2226.692-503.99-1060.912-291.024-2531.092 941.558zm26.299 3223.705l-3.836-446.384 188.118 144.798m2124.643-1439.617l679.261 316.479-1061.796-26.454h-1008.863l-943.827-1772.527 423.046 2663.017-400.583 114.304-22.463-2777.321 2057.445-68.276 400.33-6.518 73.318-866.764 470.918 831.898-544.236 34.865-122.55 1557.296-1213.337 707.176 330.697 471.995 1059.87-17.667-549.584 927.067 795.684 1516.959 1186.035-1457.687-930.102-1831.364 483.072-977.087 609.897 908.887 537.459 946.449s1185.278 764.655 1226.358 727.491l-830.746-1593.063-958.167-1868.246-490.354-593.945-781.729-999.387-279.183 708.363-2108.046 3604.575-212.465 259.103-184.282 301.586 2732.254 1864.327 3112.718-1683.313-1926.684 225.626 700.326-953.116 395.612-865.572 778.17-1958.201-1736.337 89.955s-1124.503-119.877-1080.349-53.071l495.548 931.553 584.801-878.483M3037.874 3472.29l1630.428 878.248-1177.797 12.98-954.663-46.203 502.032-845.025zm0 0l1092.969-68.201 933.07 80.877m-1095.937 1818.688l-1981.719-59.272-510.285-909.4-1029.538 1.343 698.842-473.338-178.062-417.151m-520.78 890.489l2335.508 2425.016-2547.973-2165.913m-184.282 301.586l756.644 169.106s352.038 68.158 413.594 73.341l766.332 104.921m3855.827-3717.617l52.576 3551.264"/></g></svg>