<svg xmlns="http://www.w3.org/2000/svg" width="143" height="138" viewBox="0 0 143 138"><style type="text/css">.st0{fill:#5abf8d;} .st1{fill-rule:evenodd;clip-rule:evenodd;fill:#5abf8d;} .st2{fill:none;}</style><path class="st0" d="M33.2 5.3h1.5c.7.2.9.7.9 1.3v29.2c0 .7.3 1 1 1.1 1 0 2 0 3-.1.6-.1.9-.4 1-1 .1-.4.1-.7.1-1.1v-27.9c0-.8 0-1.2 1-1.5h69.3c1.8 0 3.5.2 5.2.6 5.4 1.3 9.9 4.1 13.5 8.2 2.9 3.3 4.8 7.1 5.6 11.4.4 2.3.5 4.6.5 6.9v13.6c0 .7-.2.9-.9.9h-38.9c-.9 0-1.5-.2-2.1-.8-1.7-1.6-3.5-3-5.5-4.2-7.1-4.2-14.8-5.7-23-4.2-6.4 1.2-11.9 4-16.6 8.3-.6.6-1.3.8-2.2.8h-38.6c-.8 0-1-.2-1-1v-3.4c0-4.8-.2-9.6.2-14.4.2-2.9.9-5.7 2.2-8.4 1.9-4 4.8-7.2 8.3-9.8l.2-.1v25.9c0 .7.3 1 1 1 1 0 1.9 0 2.9-.1.6-.1 1-.4 1-1.1.1-.4.1-.8.1-1.2v-26.3c-.1-.9-.1-1 .7-1.3.8-.4 1.6-.7 2.4-.7.6 0 .8.1.7.7 0 .2-.1.4-.1.7v28.3c0 .7.3 1 1 1.1.9 0 1.9 0 2.8-.1.9-.1 1.2-.4 1.3-1.3.1-.5.1-1 .1-1.4v-13.6c0-4.5 0-9-.1-13.5.3-1 .4-1.2 1.5-1.5zm69.2 21.4v7.1c0 2.3 1.7 3.8 4.1 3.8h13.6c2.4 0 4.1-1.6 4.1-4v-13.7c0-2.4-1.6-4-4.1-4h-13.7c-2.4 0-3.9 1.5-4 3.9v6.9z"/><path class="st1" d="M44.6 50.8c-5 7.3-7.1 15.2-5.7 24 1.3 7.6 4.8 14 10.7 19.1 11.9 10.2 29 10.9 41.5 1.6 7.1-5.3 11.4-12.3 12.8-20.9 1.4-8.6-.7-16.5-5.7-23.8h36.8c.5.1.9.3.9.9.1.7.1 1.5.1 2.2v54.3c0 6.3-2.4 11.8-6.7 16.4-3.8 4.1-8.5 6.7-14 7.7-1.4.3-2.8.4-4.3.4-26.2 0-52.4.1-78.6 0-11.8 0-21.6-7.8-24.5-18.9-.6-2.2-.8-4.4-.8-6.7v-55.1c.1-.8.4-1.1 1.2-1.1h35.8c.1-.1.3-.1.5-.1zm27-6.2c14 0 25.4 11.2 25.4 25 0 13.9-11.3 24.9-25.5 24.9-14 0-25.4-11.2-25.4-25 0-13.7 11.4-24.9 25.5-24.9zm18.7 25.3c.1-10.2-8-18.9-19-18.7-10.3.1-18.7 8.6-18.4 18.7.3 10.2 8.7 18.4 19.2 18.1 10-.2 18.3-8.5 18.2-18.1z"/></svg>