<svg xmlns="http://www.w3.org/2000/svg" width="143" height="138" viewBox="0 0 143 138"><style type="text/css">.st0{fill:#5abf8d;} .st1{fill-rule:evenodd;clip-rule:evenodd;fill:#5abf8d;} .st2{fill:none;}</style><path class="st0" d="M78.8 61.7v-.2l-.1.2h.1zm42.7-55.7h-102.8c-7.2 0-13.1 5.9-13.1 13.1v99.8c0 7.2 5.9 13.1 13.1 13.1h102.8c7.2 0 13.1-5.9 13.1-13.1v-99.8c0-7.2-5.9-13.1-13.1-13.1zm-71.9 104.2h-18.9v-56.7h18.8v56.7zm-9.5-64.4h-.1c-6.3 0-10.4-4.4-10.4-9.8 0-5.6 4.2-9.8 10.7-9.8 6.4 0 10.4 4.2 10.5 9.8 0 5.4-4.1 9.8-10.7 9.8zm77.4 64.4h-18.8v-30.3c0-7.6-2.7-12.8-9.5-12.8-5.2 0-8.3 3.5-9.7 6.9-.5 1.2-.6 2.9-.6 4.6v31.7h-18.9s.2-51.4 0-56.7h18.8v8c2.5-3.9 7-9.4 17-9.4 12.4 0 21.7 8.1 21.7 25.5v32.5z"/></svg>
