<svg xmlns="http://www.w3.org/2000/svg" width="7.90941in" height="3.69268in" viewBox="0 0 569.47724 265.87283">
  <defs>
    <style>
      .cls-1, .cls-3 {
        fill: #383938;
      }

      .cls-2 {
        fill: #58bf94;
      }

      .cls-3 {
        stroke: #383938;
        stroke-miterlimit: 10;
        stroke-width: 0.94081px;
      }
    </style>
  </defs>
  <title>Asset 2</title>
  <g id="Layer_2" data-name="Layer 2">
    <g id="Layer_1-2" data-name="Layer 1">
      <g>
        <g>
          <path class="cls-1" d="M64.36,168.03779h-.01a52.90743,52.90743,0,0,0-5.16,4.99c-1.04-1.15-2.13-2.26-3.29-3.32-.56-.5-1.11-.98-1.67-1.44a56.941,56.941,0,0,1,5.21-4.97c.64.54,1.28,1.1,1.92,1.69C62.41,165.96778,63.4,166.99775,64.36,168.03779Z"/>
          <polygon class="cls-1" points="276.001 246.549 234.408 145.368 192.815 246.549 161.548 150.973 154.47 150.973 191.64 265.873 233.965 163.068 276.445 265.873 313.911 150.973 306.83 150.973 276.001 246.549"/>
          <polygon class="cls-1" points="331.377 150.974 324.296 150.974 324.296 262.182 359.695 262.182 359.695 255.545 331.377 255.545 331.377 150.974"/>
          <rect class="cls-1" x="372.98743" y="150.97487" width="7.08089" height="111.20856"/>
          <path class="cls-1" d="M484.352,245.62429l-8.99513-9.4921a51.61381,51.61381,0,0,0,8.99513,9.4921Z"/>
          <path class="cls-1" d="M393.26134,149.49678v112.687h7.08081V166.60758l70.28846,74.7313a56.76234,56.76234,0,0,1-10.46576-21.24Z"/>
          <path class="cls-1" d="M486.62557,247.37246a51.0596,51.0596,0,0,0,7.08081,4.32305V161.73194a52.32366,52.32366,0,0,0-7.08081,4.448Z"/>
          <path class="cls-1" d="M465.61394,206.57682c0-16.035,8.41391-30.99706,21.01054-40.39753v-6.5174h7.08089v2.06958a48.26812,48.26812,0,0,1,22.35127-5.5947c17.99523,0,33.03887,9.14284,42.921,23.8933l5.75284-4.57523c-11.6485-15.92814-28.02259-25.95806-48.2303-25.95806-31.85621,0-57.96712,25.665-57.96712,57.52358a53.80065,53.80065,0,0,0,1.63133,13.07852l15.19143,16.03253a50.00036,50.00036,0,0,1-9.74188-29.55459Z"/>
          <path class="cls-1" d="M569.44929,208.64267H522.54945V215.28h39.819c-.441,12.09468-3.97885,21.388-13.57036,29.49843-9.14292,7.37663-20.79647,12.24247-32.74064,12.24247a49.59834,49.59834,0,0,1-22.35127-5.32727v7.43512a55.58485,55.58485,0,0,0,21.90781,4.5295c15.63489,0,31.56552-6.48955,42.18685-17.99523,9.877-10.76656,11.94665-23.009,11.6485-37.02036Z"/>
          <path class="cls-1" d="M477.8981,249.06524l-7.267-7.72558a59.19164,59.19164,0,0,0,7.267,7.72558Z"/>
          <path class="cls-1" d="M486.62557,248.02384V247.374c-.77234-.56333-1.53449-1.14455-2.27369-1.74864Z"/>
          <path class="cls-1" d="M486.62557,159.66313v6.51756a52.109,52.109,0,0,1,7.08081-4.45031v-2.06725Z"/>
          <path class="cls-1" d="M486.62557,247.37246v.65l-2.27369-2.39846a51.616,51.616,0,0,1-8.99505-9.4921L460.1654,220.09934a56.78072,56.78072,0,0,0,10.46576,21.24l7.267,7.72558a58.63689,58.63689,0,0,0,15.80827,10.06321v-7.43263a51.0596,51.0596,0,0,1-7.08081-4.32305Z"/>
          <rect class="cls-2" x="14.3239" y="107.08272" width="537.9354" height="3.72145"/>
        </g>
        <path class="cls-3" d="M38.78239,14.53223C35.75171,9.71916,31.474,6.60029,25.1468,6.60029A12.62957,12.62957,0,0,0,12.49122,19.43349c0,7.04013,6.68366,9.98138,12.12025,12.56493L37.44468,38.6833c5.08012,3.2083,7.66489,7.30719,7.66489,13.36731,0,11.14024-10.16023,19.51809-21.0322,19.51809-9.35785,0-16.665-5.79307-19.78514-14.438l3.74363-1.693C10.88768,62.56733,16.14543,67.558,24.255,67.558c8.82375,0,16.57684-6.95193,16.57684-15.86388,0-7.57546-7.75309-10.78254-13.54616-13.63436l-12.12025-6.4166c-4.45659-2.76362-6.95193-6.68488-6.95193-12.032,0-9.98138,7.12956-17.02152,17.20037-17.02152a18.83364,18.83364,0,0,1,16.398,9.44605Z"/>
        <path class="cls-3" d="M60.24256,48.57526,51.24119,70.67689H46.87525L75.037,1.25312l28.07233,69.42378H98.74218L89.74081,48.57526ZM75.037,12.12508,61.84732,44.56458H88.13727Z"/>
        <path class="cls-3" d="M144.01366,70.67689h-4.90249l-21.92278-31.816h-2.13887v31.816h-4.27774V3.48019h8.37662c5.4366,0,10.78376.08943,15.32855,3.38715C139.29,10.25449,141.25,15.60044,141.25,21.30408c0,11.67557-8.10957,17.7357-19.24981,17.55685ZM120.48611,34.85025c4.18831,0,8.37662-.17763,11.76255-3.11888a13.45048,13.45048,0,0,0,4.72364-10.60491c0-4.99069-2.31649-9.98138-7.12956-12.12025-3.56478-1.693-8.10957-1.51534-12.03082-1.51534h-2.7624V34.85025Z"/>
        <path class="cls-3" d="M160.8551,48.57526l-9.00137,22.10163h-4.36594L175.64954,1.25312l28.07233,69.42378h-4.36716l-9.00137-22.10163Zm14.79445-36.45018L162.45986,44.56458H188.7498Z"/>
        <path class="cls-3" d="M256.47939,31.99842V3.48019h4.27774V70.67689h-4.27774V36.00911H215.66328V70.67689h-4.27774V3.48019h4.27774V31.99842Z"/>
        <path class="cls-3" d="M319.651,66.66621h17.11094v4.01068H315.37322V3.48019H319.651Z"/>
        <path class="cls-3" d="M405.1747,37.07854c0,18.89333-15.95331,34.49016-34.84664,34.49016s-34.84541-15.59683-34.84541-34.49016S351.3453,2.5896,370.32806,2.5896C389.22139,2.5896,405.1747,18.18521,405.1747,37.07854Zm-65.41432,0a30.56842,30.56842,0,0,0,61.13658,0,30.56842,30.56842,0,0,0-61.13658,0Z"/>
        <path class="cls-3" d="M456.32622,3.48019H460.604V45.367c0,6.86251,0,12.74378-4.546,18.35923a25.20035,25.20035,0,0,1-36.53838,0c-4.54479-5.61545-4.54479-11.49672-4.54479-18.35923V3.48019h4.27774V44.11867c0,6.06135,0,12.478,3.47535,16.93332,3.2965,4.27774,9.892,6.506,15.0615,6.506,5.16832,0,11.76255-2.22829,15.06028-6.506,3.47658-4.45536,3.47658-10.872,3.47658-16.93332Z"/>
        <path class="cls-3" d="M478.69368,70.67689h-4.27774V3.48019h4.27774Z"/>
        <path class="cls-3" d="M521.72261,14.53223c-3.03068-4.81307-7.30841-7.93194-13.63559-7.93194a12.62957,12.62957,0,0,0-12.65558,12.83321c0,7.04013,6.68366,9.98138,12.12025,12.56493L520.3849,38.6833c5.08012,3.2083,7.66489,7.30719,7.66489,13.36731,0,11.14024-10.16023,19.51809-21.0322,19.51809-9.35785,0-16.665-5.79307-19.78514-14.438l3.74363-1.693c2.85182,7.12956,8.10957,12.12025,16.21913,12.12025,8.82375,0,16.57684-6.95193,16.57684-15.86388,0-7.57546-7.75309-10.78254-13.54616-13.63436l-12.12025-6.4166c-4.45659-2.76362-6.95193-6.68488-6.95193-12.032,0-9.98138,7.12956-17.02152,17.20037-17.02152a18.83364,18.83364,0,0,1,16.398,9.44605Z"/>
        <path class="cls-3" d="M540.86506,7.49087V31.91022h27.09233V35.9209H540.86506V66.66621h27.80528v4.01068h-32.083V3.48019h32.083V7.49087Z"/>
        <g>
          <path class="cls-1" d="M64.36,168.03779h-.01a52.90743,52.90743,0,0,0-5.16,4.99c-1.04-1.15-2.13-2.26-3.29-3.32-.56-.5-1.11-.98-1.67-1.44a56.941,56.941,0,0,1,5.21-4.97c.64.54,1.28,1.1,1.92,1.69C62.41,165.96778,63.4,166.99775,64.36,168.03779Z"/>
          <polygon class="cls-1" points="276.001 246.549 234.408 145.368 192.815 246.549 161.548 150.973 154.47 150.973 191.64 265.873 233.965 163.068 276.445 265.873 313.911 150.973 306.83 150.973 276.001 246.549"/>
          <polygon class="cls-1" points="331.377 150.974 324.296 150.974 324.296 262.182 359.695 262.182 359.695 255.545 331.377 255.545 331.377 150.974"/>
          <rect class="cls-1" x="372.98743" y="150.97487" width="7.08089" height="111.20856"/>
          <path class="cls-1" d="M484.352,245.62429l-8.99513-9.4921a51.61381,51.61381,0,0,0,8.99513,9.4921Z"/>
          <path class="cls-1" d="M393.26134,149.49678v112.687h7.08081V166.60758l70.28846,74.7313a56.76234,56.76234,0,0,1-10.46576-21.24Z"/>
          <path class="cls-1" d="M486.62557,247.37246a51.0596,51.0596,0,0,0,7.08081,4.32305V161.73194a52.32366,52.32366,0,0,0-7.08081,4.448Z"/>
          <path class="cls-1" d="M465.61394,206.57682c0-16.035,8.41391-30.99706,21.01054-40.39753v-6.5174h7.08089v2.06958a48.26812,48.26812,0,0,1,22.35127-5.5947c17.99523,0,33.03887,9.14284,42.921,23.8933l5.75284-4.57523c-11.6485-15.92814-28.02259-25.95806-48.2303-25.95806-31.85621,0-57.96712,25.665-57.96712,57.52358a53.80065,53.80065,0,0,0,1.63133,13.07852l15.19143,16.03253a50.00036,50.00036,0,0,1-9.74188-29.55459Z"/>
          <path class="cls-1" d="M569.44929,208.64267H522.54945V215.28h39.819c-.441,12.09468-3.97885,21.388-13.57036,29.49843-9.14292,7.37663-20.79647,12.24247-32.74064,12.24247a49.59834,49.59834,0,0,1-22.35127-5.32727v7.43512a55.58485,55.58485,0,0,0,21.90781,4.5295c15.63489,0,31.56552-6.48955,42.18685-17.99523,9.877-10.76656,11.94665-23.009,11.6485-37.02036Z"/>
          <path class="cls-1" d="M477.8981,249.06524l-7.267-7.72558a59.19164,59.19164,0,0,0,7.267,7.72558Z"/>
          <path class="cls-1" d="M486.62557,248.02384V247.374c-.77234-.56333-1.53449-1.14455-2.27369-1.74864Z"/>
          <path class="cls-1" d="M486.62557,159.66313v6.51756a52.109,52.109,0,0,1,7.08081-4.45031v-2.06725Z"/>
          <path class="cls-1" d="M486.62557,247.37246v.65l-2.27369-2.39846a51.616,51.616,0,0,1-8.99505-9.4921L460.1654,220.09934a56.78072,56.78072,0,0,0,10.46576,21.24l7.267,7.72558a58.63689,58.63689,0,0,0,15.80827,10.06321v-7.43263a51.0596,51.0596,0,0,1-7.08081-4.32305Z"/>
          <rect class="cls-2" x="14.3239" y="107.08272" width="537.9354" height="3.72145"/>
        </g>
        <g>
          <path class="cls-1" d="M154.4,206.57776c0,31.27-26.4,57.08-57.67,57.08a57.62135,57.62135,0,0,1-37.35-13.9c-11.52,9.86-23.95,12.43-39.32,12.43H0v-111.21H20.06c15.38,0,27.71,2.39,39.38,12.32a56.941,56.941,0,0,0-5.21,4.97c-10.16-8.39-21.18-10.66-34.32-10.66H7.07v97.94H19.91c13.24,0,24.42-2.45,34.31-10.72a55.92311,55.92311,0,0,1,.01-76.56c.56.47,1.11.94,1.67,1.44,1.16,1.06,2.25,2.17,3.29,3.32a49.67155,49.67155,0,0,0-.04,67.05,50.27288,50.27288,0,0,0,.04-67.05,52.90743,52.90743,0,0,1,5.16-4.99,56.64461,56.64461,0,0,1,14.7,38.69,56.08323,56.08323,0,0,1-14.78,38.32,50.32624,50.32624,0,0,0,32.46,11.97c27.59,0,50.59-23.15,50.59-50.44,0-27.43-23-50.44-50.59-50.44a50.28066,50.28066,0,0,0-32.37,11.9c-.96-1.04-1.95-2.07-3-3.05-.64-.6-1.28-1.15-1.92-1.69a57.63366,57.63366,0,0,1,37.29-13.8C128,149.49775,154.4,175.30774,154.4,206.57776Z"/>
          <path class="cls-1" d="M64.36,168.03779h-.01a52.90743,52.90743,0,0,0-5.16,4.99c-1.04-1.15-2.13-2.26-3.29-3.32-.56-.5-1.11-.98-1.67-1.44a56.941,56.941,0,0,1,5.21-4.97c.64.54,1.28,1.1,1.92,1.69C62.41,165.96778,63.4,166.99775,64.36,168.03779Z"/>
          <polygon class="cls-1" points="276.001 246.549 234.408 145.368 192.815 246.549 161.548 150.973 154.47 150.973 191.64 265.873 233.965 163.068 276.445 265.873 313.911 150.973 306.83 150.973 276.001 246.549"/>
          <polygon class="cls-1" points="331.377 150.974 324.296 150.974 324.296 262.182 359.695 262.182 359.695 255.545 331.377 255.545 331.377 150.974"/>
          <rect class="cls-1" x="372.98743" y="150.97487" width="7.08089" height="111.20856"/>
          <path class="cls-1" d="M484.35,245.62775a51.54355,51.54355,0,0,1-8.99-9.5Z"/>
          <path class="cls-1" d="M477.9,249.06775a59.72712,59.72712,0,0,1-7.27-7.73Z"/>
          <path class="cls-1" d="M486.63,247.37775v.64l-2.28-2.39C485.09,246.22779,485.85,246.80774,486.63,247.37775Z"/>
          <path class="cls-1" d="M569.45,208.63776h-46.9v6.64H562.37c-.43994,12.1-3.98,21.39-13.56995,29.5-9.14,7.38-20.8,12.24-32.74005,12.24a49.61372,49.61372,0,0,1-22.35-5.32v-89.97a48.3082,48.3082,0,0,1,22.35-5.59c17.99005,0,33.04,9.14,42.92,23.89l5.75-4.57c-11.65-15.93-28.02-25.96-48.23-25.96-31.86,0-57.97,25.66-57.97,57.52a53.99454,53.99454,0,0,0,1.63,13.08l.01.01c.12.48.25.96.38,1.44-.14-.48-.27-.96-.39-1.45l-66.9-70.6v112.69h7.08v-95.58l70.29,74.73,7.27,7.73a58.605,58.605,0,0,0,15.81,10.06,55.51005,55.51005,0,0,0,21.9,4.53c15.64,0,31.57-6.49,42.19-17.99C567.68005,234.89777,569.75,222.65778,569.45,208.63776Zm-82.82,39.38-2.28-2.39a51.54355,51.54355,0,0,1-8.99-9.5,49.96378,49.96378,0,0,1-9.75-29.55c0-16.04,8.42-31,21.00995-40.4v-6.52h7.09v.01h-7.08Z"/>
          <rect class="cls-2" x="14.3239" y="107.08272" width="537.9354" height="3.72145"/>
        </g>
        <path class="cls-3" d="M38.78239,14.53223C35.75171,9.71916,31.474,6.60029,25.1468,6.60029A12.62957,12.62957,0,0,0,12.49122,19.43349c0,7.04013,6.68366,9.98138,12.12025,12.56493L37.44468,38.6833c5.08012,3.2083,7.66489,7.30719,7.66489,13.36731,0,11.14024-10.16023,19.51809-21.0322,19.51809-9.35785,0-16.665-5.79307-19.78514-14.438l3.74363-1.693C10.88768,62.56733,16.14543,67.558,24.255,67.558c8.82375,0,16.57684-6.95193,16.57684-15.86388,0-7.57546-7.75309-10.78254-13.54616-13.63436l-12.12025-6.4166c-4.45659-2.76362-6.95193-6.68488-6.95193-12.032,0-9.98138,7.12956-17.02152,17.20037-17.02152a18.83364,18.83364,0,0,1,16.398,9.44605Z"/>
        <path class="cls-3" d="M60.24256,48.57526,51.24119,70.67689H46.87525L75.037,1.25312l28.07233,69.42378H98.74218L89.74081,48.57526ZM75.037,12.12508,61.84732,44.56458H88.13727Z"/>
        <path class="cls-3" d="M144.01366,70.67689h-4.90249l-21.92278-31.816h-2.13887v31.816h-4.27774V3.48019h8.37662c5.4366,0,10.78376.08943,15.32855,3.38715C139.29,10.25449,141.25,15.60044,141.25,21.30408c0,11.67557-8.10957,17.7357-19.24981,17.55685ZM120.48611,34.85025c4.18831,0,8.37662-.17763,11.76255-3.11888a13.45048,13.45048,0,0,0,4.72364-10.60491c0-4.99069-2.31649-9.98138-7.12956-12.12025-3.56478-1.693-8.10957-1.51534-12.03082-1.51534h-2.7624V34.85025Z"/>
        <path class="cls-3" d="M160.8551,48.57526l-9.00137,22.10163h-4.36594L175.64954,1.25312l28.07233,69.42378h-4.36716l-9.00137-22.10163Zm14.79445-36.45018L162.45986,44.56458H188.7498Z"/>
        <path class="cls-3" d="M256.47939,31.99842V3.48019h4.27774V70.67689h-4.27774V36.00911H215.66328V70.67689h-4.27774V3.48019h4.27774V31.99842Z"/>
        <path class="cls-3" d="M319.651,66.66621h17.11094v4.01068H315.37322V3.48019H319.651Z"/>
        <path class="cls-3" d="M405.1747,37.07854c0,18.89333-15.95331,34.49016-34.84664,34.49016s-34.84541-15.59683-34.84541-34.49016S351.3453,2.5896,370.32806,2.5896C389.22139,2.5896,405.1747,18.18521,405.1747,37.07854Zm-65.41432,0a30.56842,30.56842,0,0,0,61.13658,0,30.56842,30.56842,0,0,0-61.13658,0Z"/>
        <path class="cls-3" d="M456.32622,3.48019H460.604V45.367c0,6.86251,0,12.74378-4.546,18.35923a25.20035,25.20035,0,0,1-36.53838,0c-4.54479-5.61545-4.54479-11.49672-4.54479-18.35923V3.48019h4.27774V44.11867c0,6.06135,0,12.478,3.47535,16.93332,3.2965,4.27774,9.892,6.506,15.0615,6.506,5.16832,0,11.76255-2.22829,15.06028-6.506,3.47658-4.45536,3.47658-10.872,3.47658-16.93332Z"/>
        <path class="cls-3" d="M478.69368,70.67689h-4.27774V3.48019h4.27774Z"/>
        <path class="cls-3" d="M521.72261,14.53223c-3.03068-4.81307-7.30841-7.93194-13.63559-7.93194a12.62957,12.62957,0,0,0-12.65558,12.83321c0,7.04013,6.68366,9.98138,12.12025,12.56493L520.3849,38.6833c5.08012,3.2083,7.66489,7.30719,7.66489,13.36731,0,11.14024-10.16023,19.51809-21.0322,19.51809-9.35785,0-16.665-5.79307-19.78514-14.438l3.74363-1.693c2.85182,7.12956,8.10957,12.12025,16.21913,12.12025,8.82375,0,16.57684-6.95193,16.57684-15.86388,0-7.57546-7.75309-10.78254-13.54616-13.63436l-12.12025-6.4166c-4.45659-2.76362-6.95193-6.68488-6.95193-12.032,0-9.98138,7.12956-17.02152,17.20037-17.02152a18.83364,18.83364,0,0,1,16.398,9.44605Z"/>
        <path class="cls-3" d="M540.86506,7.49087V31.91022h27.09233V35.9209H540.86506V66.66621h27.80528v4.01068h-32.083V3.48019h32.083V7.49087Z"/>
      </g>
    </g>
  </g>
</svg>
