<svg xmlns="http://www.w3.org/2000/svg" width="7.909in" height="3.693in" viewBox="0 0 569.47724 265.87283"><defs><style>.cls-1, .cls-3 { fill: #383938; } .cls-2 { fill: #58bf94; } .cls-3 { stroke: #383938; stroke-miterlimit: 10; stroke-width: 0.94081px; }</style></defs><title>Asset 2</title><g id="Layer_1-2"><path class="cls-1" d="M64.36 168.038h-.01a52.907 52.907 0 0 0-5.16 4.99c-1.04-1.15-2.13-2.26-3.29-3.32-.56-.5-1.11-.98-1.67-1.44a56.941 56.941 0 0 1 5.21-4.97c.64.54 1.28 1.1 1.92 1.69 1.05.98 2.04 2.01 3 3.05zm211.641 78.511l-41.593-101.181-41.593 101.181-31.267-95.576h-7.078l37.17 114.9 42.325-102.805 42.48 102.805 37.466-114.9h-7.081l-30.829 95.576zm55.376-95.575h-7.081v111.208h35.399v-6.637h-28.318v-104.571zm41.61.001h7.081v111.209h-7.081zm111.365 94.649l-8.995-9.492a51.614 51.614 0 0 0 8.995 9.492zm-91.091-96.127v112.687h7.081v-95.576l70.288 74.731a56.762 56.762 0 0 1-10.466-21.24zm93.365 97.875a51.06 51.06 0 0 0 7.081 4.323v-89.964a52.324 52.324 0 0 0-7.081 4.448zm-21.012-40.795c0-16.035 8.414-30.997 21.011-40.398v-6.517h7.081v2.07a48.268 48.268 0 0 1 22.351-5.595c17.995 0 33.039 9.143 42.921 23.893l5.753-4.575c-11.649-15.928-28.023-25.958-48.23-25.958-31.856 0-57.967 25.665-57.967 57.524a53.801 53.801 0 0 0 1.631 13.079l15.191 16.033a50 50 0 0 1-9.742-29.555zm103.835 2.066h-46.9v6.637h39.819c-.441 12.095-3.979 21.388-13.57 29.498-9.143 7.377-20.796 12.242-32.741 12.242a49.598 49.598 0 0 1-22.351-5.327v7.435a55.585 55.585 0 0 0 21.908 4.529c15.635 0 31.566-6.49 42.187-17.995 9.877-10.767 11.947-23.009 11.649-37.02zm-91.551 40.422l-7.267-7.726a59.192 59.192 0 0 0 7.267 7.726zm8.728-1.041v-.65c-.772-.563-1.534-1.145-2.274-1.749zm0-88.361v6.518a52.109 52.109 0 0 1 7.081-4.45v-2.067zm0 87.709v.65l-2.274-2.398a51.616 51.616 0 0 1-8.995-9.492l-15.191-16.033a56.781 56.781 0 0 0 10.466 21.24l7.267 7.726a58.637 58.637 0 0 0 15.808 10.063v-7.433a51.06 51.06 0 0 1-7.081-4.323z"/><path class="cls-2" d="M14.324 107.083h537.935v3.721h-537.935z"/><path class="cls-3" d="M38.782 14.532c-3.031-4.813-7.308-7.932-13.636-7.932a12.63 12.63 0 0 0-12.656 12.833c0 7.04 6.684 9.981 12.12 12.565l12.833 6.685c5.08 3.208 7.665 7.307 7.665 13.367 0 11.14-10.16 19.518-21.032 19.518-9.358 0-16.665-5.793-19.785-14.438l3.744-1.693c2.852 7.13 8.11 12.12 16.219 12.12 8.824 0 16.577-6.952 16.577-15.864 0-7.575-7.753-10.783-13.546-13.634l-12.12-6.417c-4.457-2.764-6.952-6.685-6.952-12.032 0-9.981 7.13-17.022 17.2-17.022a18.834 18.834 0 0 1 16.398 9.446zm21.461 34.043l-9.001 22.102h-4.366l28.162-69.424 28.072 69.424h-4.367l-9.001-22.102zm14.794-36.45l-13.19 32.44h26.29zm68.977 58.552h-4.902l-21.923-31.816h-2.139v31.816h-4.278v-67.197h8.377c5.437 0 10.784.089 15.329 3.387 4.813 3.387 6.773 8.733 6.773 14.437 0 11.676-8.11 17.736-19.25 17.557zm-23.528-35.827c4.188 0 8.377-.178 11.763-3.119a13.45 13.45 0 0 0 4.724-10.605c0-4.991-2.316-9.981-7.13-12.12-3.565-1.693-8.11-1.515-12.031-1.515h-2.762v27.359zm40.369 13.725l-9.001 22.102h-4.366l28.162-69.424 28.072 69.424h-4.367l-9.001-22.102zm14.794-36.45l-13.19 32.44h26.29zm80.83 19.873v-28.518h4.278v67.197h-4.278v-34.668h-40.816v34.668h-4.278v-67.197h4.278v28.518zm63.172 34.668h17.111v4.011h-21.389v-67.197h4.278zm85.524-29.587c0 18.893-15.953 34.49-34.847 34.49s-34.845-15.597-34.845-34.49 15.863-34.489 34.845-34.489c18.893 0 34.847 15.596 34.847 34.489zm-65.414 0a30.568 30.568 0 0 0 61.137 0 30.568 30.568 0 0 0-61.137 0zm116.565-33.599h4.278v41.887c0 6.863 0 12.744-4.546 18.359a25.2 25.2 0 0 1-36.538 0c-4.545-5.615-4.545-11.497-4.545-18.359v-41.887h4.278v40.638c0 6.061 0 12.478 3.475 16.933 3.296 4.278 9.892 6.506 15.062 6.506 5.168 0 11.763-2.228 15.06-6.506 3.477-4.455 3.477-10.872 3.477-16.933zm22.368 67.197h-4.278v-67.197h4.278zm43.029-56.145c-3.031-4.813-7.308-7.932-13.636-7.932a12.63 12.63 0 0 0-12.656 12.833c0 7.04 6.684 9.981 12.12 12.565l12.833 6.685c5.08 3.208 7.665 7.307 7.665 13.367 0 11.14-10.16 19.518-21.032 19.518-9.358 0-16.665-5.793-19.785-14.438l3.744-1.693c2.852 7.13 8.11 12.12 16.219 12.12 8.824 0 16.577-6.952 16.577-15.864 0-7.575-7.753-10.783-13.546-13.634l-12.12-6.417c-4.457-2.764-6.952-6.685-6.952-12.032 0-9.981 7.13-17.022 17.2-17.022a18.834 18.834 0 0 1 16.398 9.446zm19.142-7.041v24.419h27.092v4.011h-27.092v30.745h27.805v4.011h-32.083v-67.197h32.083v4.011z"/><path class="cls-1" d="M64.36 168.038h-.01a52.907 52.907 0 0 0-5.16 4.99c-1.04-1.15-2.13-2.26-3.29-3.32-.56-.5-1.11-.98-1.67-1.44a56.941 56.941 0 0 1 5.21-4.97c.64.54 1.28 1.1 1.92 1.69 1.05.98 2.04 2.01 3 3.05zm211.641 78.511l-41.593-101.181-41.593 101.181-31.267-95.576h-7.078l37.17 114.9 42.325-102.805 42.48 102.805 37.466-114.9h-7.081l-30.829 95.576zm55.376-95.575h-7.081v111.208h35.399v-6.637h-28.318v-104.571zm41.61.001h7.081v111.209h-7.081zm111.365 94.649l-8.995-9.492a51.614 51.614 0 0 0 8.995 9.492zm-91.091-96.127v112.687h7.081v-95.576l70.288 74.731a56.762 56.762 0 0 1-10.466-21.24zm93.365 97.875a51.06 51.06 0 0 0 7.081 4.323v-89.964a52.324 52.324 0 0 0-7.081 4.448zm-21.012-40.795c0-16.035 8.414-30.997 21.011-40.398v-6.517h7.081v2.07a48.268 48.268 0 0 1 22.351-5.595c17.995 0 33.039 9.143 42.921 23.893l5.753-4.575c-11.649-15.928-28.023-25.958-48.23-25.958-31.856 0-57.967 25.665-57.967 57.524a53.801 53.801 0 0 0 1.631 13.079l15.191 16.033a50 50 0 0 1-9.742-29.555zm103.835 2.066h-46.9v6.637h39.819c-.441 12.095-3.979 21.388-13.57 29.498-9.143 7.377-20.796 12.242-32.741 12.242a49.598 49.598 0 0 1-22.351-5.327v7.435a55.585 55.585 0 0 0 21.908 4.529c15.635 0 31.566-6.49 42.187-17.995 9.877-10.767 11.947-23.009 11.649-37.02zm-91.551 40.422l-7.267-7.726a59.192 59.192 0 0 0 7.267 7.726zm8.728-1.041v-.65c-.772-.563-1.534-1.145-2.274-1.749zm0-88.361v6.518a52.109 52.109 0 0 1 7.081-4.45v-2.067zm0 87.709v.65l-2.274-2.398a51.616 51.616 0 0 1-8.995-9.492l-15.191-16.033a56.781 56.781 0 0 0 10.466 21.24l7.267 7.726a58.637 58.637 0 0 0 15.808 10.063v-7.433a51.06 51.06 0 0 1-7.081-4.323z"/><path class="cls-2" d="M14.324 107.083h537.935v3.721h-537.935z"/><path class="cls-1" d="M154.4 206.578c0 31.27-26.4 57.08-57.67 57.08a57.621 57.621 0 0 1-37.35-13.9c-11.52 9.86-23.95 12.43-39.32 12.43h-20.06v-111.21h20.06c15.38 0 27.71 2.39 39.38 12.32a56.941 56.941 0 0 0-5.21 4.97c-10.16-8.39-21.18-10.66-34.32-10.66h-12.84v97.94h12.84c13.24 0 24.42-2.45 34.31-10.72a55.923 55.923 0 0 1 .01-76.56c.56.47 1.11.94 1.67 1.44 1.16 1.06 2.25 2.17 3.29 3.32a49.672 49.672 0 0 0-.04 67.05 50.273 50.273 0 0 0 .04-67.05 52.907 52.907 0 0 1 5.16-4.99 56.645 56.645 0 0 1 14.7 38.69 56.083 56.083 0 0 1-14.78 38.32 50.326 50.326 0 0 0 32.46 11.97c27.59 0 50.59-23.15 50.59-50.44 0-27.43-23-50.44-50.59-50.44a50.281 50.281 0 0 0-32.37 11.9c-.96-1.04-1.95-2.07-3-3.05-.64-.6-1.28-1.15-1.92-1.69a57.634 57.634 0 0 1 37.29-13.8c31.27 0 57.67 25.81 57.67 57.08zm-90.04-38.54h-.01a52.907 52.907 0 0 0-5.16 4.99c-1.04-1.15-2.13-2.26-3.29-3.32-.56-.5-1.11-.98-1.67-1.44a56.941 56.941 0 0 1 5.21-4.97c.64.54 1.28 1.1 1.92 1.69 1.05.98 2.04 2.01 3 3.05zm211.641 78.511l-41.593-101.181-41.593 101.181-31.267-95.576h-7.078l37.17 114.9 42.325-102.805 42.48 102.805 37.466-114.9h-7.081l-30.829 95.576zm55.376-95.575h-7.081v111.208h35.399v-6.637h-28.318v-104.571zm41.61.001h7.081v111.209h-7.081zm111.363 94.653a51.544 51.544 0 0 1-8.99-9.5zm-6.45 3.44a59.727 59.727 0 0 1-7.27-7.73zm8.73-1.69v.64l-2.28-2.39c.74.6 1.5 1.18 2.28 1.75zm82.82-38.74h-46.9v6.64h39.82c-.44 12.1-3.98 21.39-13.57 29.5-9.14 7.38-20.8 12.24-32.74 12.24a49.614 49.614 0 0 1-22.35-5.32v-89.97a48.308 48.308 0 0 1 22.35-5.59c17.99 0 33.04 9.14 42.92 23.89l5.75-4.57c-11.65-15.93-28.02-25.96-48.23-25.96-31.86 0-57.97 25.66-57.97 57.52a53.995 53.995 0 0 0 1.63 13.08l.01.01c.12.48.25.96.38 1.44-.14-.48-.27-.96-.39-1.45l-66.9-70.6v112.69h7.08v-95.58l70.29 74.73 7.27 7.73a58.605 58.605 0 0 0 15.81 10.06 55.51 55.51 0 0 0 21.9 4.53c15.64 0 31.57-6.49 42.19-17.99 9.88-10.77 11.95-23.01 11.65-37.03zm-82.82 39.38l-2.28-2.39a51.544 51.544 0 0 1-8.99-9.5 49.964 49.964 0 0 1-9.75-29.55c0-16.04 8.42-31 21.01-40.4v-6.52h7.09v.01h-7.08z"/><path class="cls-2" d="M14.324 107.083h537.935v3.721h-537.935z"/><path class="cls-3" d="M38.782 14.532c-3.031-4.813-7.308-7.932-13.636-7.932a12.63 12.63 0 0 0-12.656 12.833c0 7.04 6.684 9.981 12.12 12.565l12.833 6.685c5.08 3.208 7.665 7.307 7.665 13.367 0 11.14-10.16 19.518-21.032 19.518-9.358 0-16.665-5.793-19.785-14.438l3.744-1.693c2.852 7.13 8.11 12.12 16.219 12.12 8.824 0 16.577-6.952 16.577-15.864 0-7.575-7.753-10.783-13.546-13.634l-12.12-6.417c-4.457-2.764-6.952-6.685-6.952-12.032 0-9.981 7.13-17.022 17.2-17.022a18.834 18.834 0 0 1 16.398 9.446zm21.461 34.043l-9.001 22.102h-4.366l28.162-69.424 28.072 69.424h-4.367l-9.001-22.102zm14.794-36.45l-13.19 32.44h26.29zm68.977 58.552h-4.902l-21.923-31.816h-2.139v31.816h-4.278v-67.197h8.377c5.437 0 10.784.089 15.329 3.387 4.813 3.387 6.773 8.733 6.773 14.437 0 11.676-8.11 17.736-19.25 17.557zm-23.528-35.827c4.188 0 8.377-.178 11.763-3.119a13.45 13.45 0 0 0 4.724-10.605c0-4.991-2.316-9.981-7.13-12.12-3.565-1.693-8.11-1.515-12.031-1.515h-2.762v27.359zm40.369 13.725l-9.001 22.102h-4.366l28.162-69.424 28.072 69.424h-4.367l-9.001-22.102zm14.794-36.45l-13.19 32.44h26.29zm80.83 19.873v-28.518h4.278v67.197h-4.278v-34.668h-40.816v34.668h-4.278v-67.197h4.278v28.518zm63.172 34.668h17.111v4.011h-21.389v-67.197h4.278zm85.524-29.587c0 18.893-15.953 34.49-34.847 34.49s-34.845-15.597-34.845-34.49 15.863-34.489 34.845-34.489c18.893 0 34.847 15.596 34.847 34.489zm-65.414 0a30.568 30.568 0 0 0 61.137 0 30.568 30.568 0 0 0-61.137 0zm116.565-33.599h4.278v41.887c0 6.863 0 12.744-4.546 18.359a25.2 25.2 0 0 1-36.538 0c-4.545-5.615-4.545-11.497-4.545-18.359v-41.887h4.278v40.638c0 6.061 0 12.478 3.475 16.933 3.296 4.278 9.892 6.506 15.062 6.506 5.168 0 11.763-2.228 15.06-6.506 3.477-4.455 3.477-10.872 3.477-16.933zm22.368 67.197h-4.278v-67.197h4.278zm43.029-56.145c-3.031-4.813-7.308-7.932-13.636-7.932a12.63 12.63 0 0 0-12.656 12.833c0 7.04 6.684 9.981 12.12 12.565l12.833 6.685c5.08 3.208 7.665 7.307 7.665 13.367 0 11.14-10.16 19.518-21.032 19.518-9.358 0-16.665-5.793-19.785-14.438l3.744-1.693c2.852 7.13 8.11 12.12 16.219 12.12 8.824 0 16.577-6.952 16.577-15.864 0-7.575-7.753-10.783-13.546-13.634l-12.12-6.417c-4.457-2.764-6.952-6.685-6.952-12.032 0-9.981 7.13-17.022 17.2-17.022a18.834 18.834 0 0 1 16.398 9.446zm19.142-7.041v24.419h27.092v4.011h-27.092v30.745h27.805v4.011h-32.083v-67.197h32.083v4.011z"/></g></svg>