<svg xmlns="http://www.w3.org/2000/svg" width="1543.1914" height="102.8809" viewBox="0 0 1543.1914 102.8809"><defs><style>.cls-1{fill:#59bf8e;}</style></defs><title>Asset 1</title><g id="Layer_2" data-name="Layer 2"><g id="Layer_1-2" data-name="Layer 1"><path class="cls-1" d="M69.3164,94.1992q0,12.51-9.1943,19.8242t-24.4385,7.3145q-18.3208,0-28.0957-4.0332V110.332q10.8,4.5806,27.5488,4.58,12.3047,0,19.5166-5.64a17.89,17.89,0,0,0,7.2119-14.8,17.0862,17.0862,0,0,0-2.3926-9.3994,21.84,21.84,0,0,0-7.793-6.8018A96.1422,96.1422,0,0,0,35.82,71.6406Q20.5068,66.3774,14.6631,60.2588T8.8184,43.9551a22.4075,22.4075,0,0,1,8.7842-18.2861q8.7832-7.0752,22.5928-7.0752A66.13,66.13,0,0,1,66.65,23.9258l-2.5293,6.0156A61.7241,61.7241,0,0,0,40.332,24.7461q-11.0742,0-17.6367,5.127a16.75,16.75,0,0,0-6.5625,13.9453A18.2644,18.2644,0,0,0,18.1494,52.91a18.523,18.523,0,0,0,6.5967,6.3916q4.5791,2.8374,15.7227,6.8018,11.6895,4.0342,17.5684,7.8271a25.119,25.119,0,0,1,8.5791,8.6133A23.5128,23.5128,0,0,1,69.3164,94.1992Z" transform="translate(-7.5879 -18.457)"/><path class="cls-1" d="M138.5645,84.6973H97.959L84.0137,119.9707H76.2891L116.4844,19.6191h4.4434l39.375,100.3516h-7.8613Zm-38.0762-6.2891H136.24L122.6367,42.3828q-1.7095-4.2378-4.1016-11.7578A109.6921,109.6921,0,0,1,114.502,42.52Z" transform="translate(-7.5879 -18.457)"/><path class="cls-1" d="M181.4258,76.4258v43.5449h-6.9727V20.0293h23.7891q18.5933,0,27.48,6.87t8.8867,20.6787q0,10.0488-5.2979,16.9531t-16.0986,9.9121l27.1387,45.5273h-8.34L206.24,76.4258Zm0-6.0156H200.498q12.646,0,19.6191-5.64T227.09,48.125q0-11.4155-6.8359-16.6113t-22.2852-5.1953h-16.543Z" transform="translate(-7.5879 -18.457)"/><path class="cls-1" d="M305.7715,84.6973H265.166l-13.9453,35.2734h-7.7246L283.6914,19.6191h4.4434L327.51,119.9707h-7.8613Zm-38.0762-6.2891h35.752L289.8438,42.3828q-1.7095-4.2378-4.1016-11.7578A109.6921,109.6921,0,0,1,281.709,42.52Z" transform="translate(-7.5879 -18.457)"/><path class="cls-1" d="M414.0527,119.9707h-7.041V70.82H348.6328v49.15H341.66V20.0293h6.9727V64.3945h58.3789V20.0293h7.041Z" transform="translate(-7.5879 -18.457)"/><path class="cls-1" d="M478.7207,119.9707V20.0293h6.9727v93.3789H533.34v6.5625Z" transform="translate(-7.5879 -18.457)"/><path class="cls-1" d="M626.18,69.8633q0,23.7891-11.8945,37.6318t-32.8125,13.8428q-20.8506,0-32.7441-13.8428T536.8345,69.7266q0-23.8564,11.9971-37.5635Q560.8286,18.458,581.61,18.457q20.918,0,32.7441,13.7744T626.18,69.8633Zm-81.7578,0q0,21.4658,9.57,33.1885,9.57,11.7246,27.48,11.7236,18.0469,0,27.583-11.6211t9.5361-33.291q0-21.6006-9.5361-33.12T581.61,25.2246q-17.8418,0-27.5146,11.6211T544.4224,69.8633Z" transform="translate(-7.5879 -18.457)"/><path class="cls-1" d="M714.2354,20.0293v64.668q0,17.2266-9.98,26.9336t-27.8223,9.707q-17.3643,0-27.1045-9.7412t-9.7412-27.1729V20.0293h7.041v64.668q0,14.4243,7.998,22.4561t22.627,8.0322q14.2866,0,22.1484-7.8955t7.8613-21.9092V20.0293Z" transform="translate(-7.5879 -18.457)"/><path class="cls-1" d="M735.8423,119.9707V20.0293h6.9727v99.9414Z" transform="translate(-7.5879 -18.457)"/><path class="cls-1" d="M826.2817,94.1992q0,12.51-9.1943,19.8242t-24.4385,7.3145q-18.3208,0-28.0957-4.0332V110.332q10.8,4.5806,27.5488,4.58,12.3047,0,19.5166-5.64a17.89,17.89,0,0,0,7.2119-14.8,17.0862,17.0862,0,0,0-2.3926-9.3994,21.84,21.84,0,0,0-7.793-6.8018,96.1422,96.1422,0,0,0-15.8594-6.6309q-15.3135-5.2632-21.1572-11.3818t-5.8447-16.3037a22.4075,22.4075,0,0,1,8.7842-18.2861q8.7832-7.0752,22.5928-7.0752a66.13,66.13,0,0,1,26.4551,5.332l-2.5293,6.0156a61.7241,61.7241,0,0,0-23.7891-5.1953q-11.0742,0-17.6367,5.127a16.75,16.75,0,0,0-6.5625,13.9453,18.2644,18.2644,0,0,0,2.0166,9.0918,18.523,18.523,0,0,0,6.5967,6.3916q4.5791,2.8374,15.7227,6.8018,11.6895,4.0342,17.5684,7.8271a25.119,25.119,0,0,1,8.5791,8.6133A23.5128,23.5128,0,0,1,826.2817,94.1992Z" transform="translate(-7.5879 -18.457)"/><path class="cls-1" d="M899.2236,119.9707H844.6045V20.0293h54.6191v6.4258H851.5771V64.2578h44.98v6.4258h-44.98v42.8613h47.6465Z" transform="translate(-7.5879 -18.457)"/><path class="cls-1" d="M1034.0967,69.043q0,25.1572-13.1934,38.042t-38.76,12.8857H958.2178V20.0293H985.22q23.9253,0,36.4014,12.51T1034.0967,69.043Zm-7.5879.2734q0-21.4644-10.9033-32.3t-32.0264-10.835H965.19v87.6367h16.543Q1026.5078,113.8184,1026.5088,69.3164Z" transform="translate(-7.5879 -18.457)"/><path class="cls-1" d="M1135.4795,69.8633q0,23.7891-11.8945,37.6318t-32.8125,13.8428q-20.8506,0-32.7441-13.8428t-11.8945-37.7686q0-23.8564,11.9971-37.5635,11.9971-13.7051,32.7783-13.7061,20.918,0,32.7441,13.7744T1135.4795,69.8633Zm-81.7578,0q0,21.4658,9.57,33.1885,9.57,11.7246,27.48,11.7236,18.0469,0,27.583-11.6211t9.5361-33.291q0-21.6006-9.5361-33.12t-27.4463-11.5186q-17.8418,0-27.5146,11.6211T1053.7217,69.8633Z" transform="translate(-7.5879 -18.457)"/><path class="cls-1" d="M1229.6865,119.9707h-5.7422L1202.001,42.8613q-2.7349-9.501-4.1016-15.5859-1.0942,5.9473-3.11,13.6719t-22.0459,79.0234h-5.8789l-27.48-99.9414h7.3145l17.5,64.3945q1.0254,3.8965,1.9141,7.2119t1.6064,6.2207q.7178,2.9063,1.2988,5.6055.58,2.7012,1.06,5.4346,1.6406-9.2959,6.9727-28.2324l17.09-60.6348h7.7246l20.0293,69.59q3.4863,12.0322,4.99,19.4141.8877-4.9219,2.29-10.459,1.4-5.5371,21.0889-78.5449h7.041Z" transform="translate(-7.5879 -18.457)"/><path class="cls-1" d="M1274.94,119.9707V20.0293h6.9727v93.3789H1329.56v6.5625Z" transform="translate(-7.5879 -18.457)"/><path class="cls-1" d="M1346.7861,119.9707V20.0293h6.9727v99.9414Z" transform="translate(-7.5879 -18.457)"/><path class="cls-1" d="M1451.9258,119.9707h-7.041l-59.1992-88.73h-.5469q.82,15.86.82,23.9258v64.8047H1379.26V20.0293h6.9727l59.1309,88.5938h.41q-.6152-12.3047-.6152-23.3789V20.0293h6.7676Z" transform="translate(-7.5879 -18.457)"/><path class="cls-1" d="M1513.9336,69.59h36.8457v45.5957q-14.4932,6.1523-32.6074,6.1523-23.6528,0-36.2646-13.3643t-12.6123-37.8369q0-15.2432,6.2549-27.0361a43.8161,43.8161,0,0,1,17.91-18.2178q11.6543-6.4248,26.7627-6.4258a68.9992,68.9992,0,0,1,29.3262,6.0156l-2.8027,6.2891a63.4043,63.4043,0,0,0-26.9336-6.0156q-19.7563,0-31.3428,12.2021t-11.5869,32.915q0,22.5586,11.0059,33.94t32.334,11.3818q13.8076,0,23.4473-3.8965V76.1523h-29.7363Z" transform="translate(-7.5879 -18.457)"/></g></g></svg>