<svg xmlns="http://www.w3.org/2000/svg" width="1.3116in" height="0.6123in" viewBox="0 0 94.4328 44.0882"><defs><style>.cls-1,.cls-3{fill:#383938;}.cls-2{fill:#58bf94;}.cls-3{stroke:#383938;stroke-miterlimit:10;stroke-width:0.156px;}</style></defs><title>Asset 2</title><g id="Layer_2" data-name="Layer 2"><g id="Layer_1-2" data-name="Layer 1"><path class="cls-1" d="M8.9915,40.5982a8.3049,8.3049,0,0,1-5.69,1.7778H1.1729v-16.24h2.129a8.2933,8.2933,0,0,1,5.69,1.7676,9.7229,9.7229,0,0,1,.8644-.8251,9.2261,9.2261,0,0,0-6.53-2.0432H0V43.4766H3.326a9.2221,9.2221,0,0,0,6.52-2.061,9.7549,9.7549,0,0,1-.8546-.8175"/><path class="cls-1" d="M9.8147,28.6925a8.3377,8.3377,0,0,1-.0068,11.1188,8.6377,8.6377,0,0,0,.85.8229A9.2972,9.2972,0,0,0,13.109,34.28a9.3911,9.3911,0,0,0-2.4375-6.4149,8.6053,8.6053,0,0,0-.8567.8272"/><path class="cls-1" d="M9.8147,28.6925c-.1725-.1906-.3529-.3753-.5457-.5516-.0917-.0828-.1843-.1606-.2773-.2375a9.2717,9.2717,0,0,0,0,12.6949c.1678-.14.3339-.287.4971-.448.11-.11.2164-.224.32-.339a8.236,8.236,0,0,1,.0068-11.1188"/><path class="cls-1" d="M16.0408,24.79a9.5609,9.5609,0,0,0-6.1845,2.2879c.1061.09.2126.1822.3183.28.1741.1631.3377.3335.4971.5068a8.336,8.336,0,0,1,5.3692-1.9739,8.3645,8.3645,0,1,1,0,16.7288,8.3371,8.3371,0,0,1-5.3831-1.9857c-.1247.1348-.2528.2675-.3863.3965-.1412.1357-.2828.2629-.4256.3851A9.4933,9.4933,0,1,0,16.0408,24.79"/><path class="cls-1" d="M8.9918,27.9035c.093.0765.1856.1547.2773.2375.1923.1762.3732.361.5457.5516a8.6054,8.6054,0,0,1,.8568-.8272c-.1589-.1737-.3229-.3441-.4971-.5068-.1057-.0981-.2118-.19-.3183-.2807a9.7821,9.7821,0,0,0-.8644.8254"/><path class="cls-1" d="M10.6579,40.6343a8.589,8.589,0,0,1-.85-.8234c-.1031.1154-.2092.2291-.3191.339-.1636.1611-.33.3081-.4975.4485a9.8839,9.8839,0,0,0,.8546.8175c.1424-.1222.2845-.2494.4252-.3851.134-.1285.2621-.2616.3867-.3965"/><polygon class="cls-1" points="45.768 40.884 38.87 24.106 31.973 40.884 26.788 25.035 25.615 25.035 31.778 44.088 38.797 27.041 45.841 44.088 52.054 25.035 50.88 25.035 45.768 40.884"/><polygon class="cls-1" points="54.95 25.035 53.776 25.035 53.776 43.476 59.646 43.476 59.646 42.376 54.95 42.376 54.95 25.035"/><rect class="cls-1" x="61.8502" y="25.0353" width="1.1742" height="18.4411"/><path class="cls-1" d="M80.3171,40.73l-1.4916-1.574a8.5588,8.5588,0,0,0,1.4916,1.574"/><path class="cls-1" d="M65.2121,24.79V43.4764h1.1742V27.6276L78.0418,40.02a9.4126,9.4126,0,0,1-1.7355-3.5221Z"/><path class="cls-1" d="M80.6942,41.02a8.4669,8.4669,0,0,0,1.1742.7169V26.8191a8.6765,8.6765,0,0,0-1.1742.7376Z"/><path class="cls-1" d="M77.21,34.2555a8.4927,8.4927,0,0,1,3.4841-6.6989V26.4758h1.1742v.3432a8.004,8.004,0,0,1,3.7064-.9277,8.4468,8.4468,0,0,1,7.1173,3.9621l.954-.7587A9.7327,9.7327,0,0,0,85.6481,24.79a9.5831,9.5831,0,0,0-9.6124,9.5388,8.9215,8.9215,0,0,0,.2705,2.1687l2.5191,2.6586A8.2913,8.2913,0,0,1,77.21,34.2555"/><path class="cls-1" d="M94.4284,34.598H86.6512v1.1006h6.603a6.1505,6.1505,0,0,1-2.25,4.8916,8.8045,8.8045,0,0,1-5.4292,2.03,8.2246,8.2246,0,0,1-3.7064-.8834V42.97a9.2173,9.2173,0,0,0,3.6328.7511,9.6549,9.6549,0,0,0,6.9956-2.984,8.1275,8.1275,0,0,0,1.9316-6.1389"/><path class="cls-1" d="M79.2469,41.3011,78.0419,40.02a9.8154,9.8154,0,0,0,1.205,1.2811"/><path class="cls-1" d="M80.6942,41.1284v-.1078c-.1281-.0934-.2545-.19-.377-.29Z"/><path class="cls-1" d="M80.6942,26.476v1.0808a8.6409,8.6409,0,0,1,1.1742-.738V26.476Z"/><path class="cls-1" d="M80.6942,41.02v.1078l-.377-.3977a8.5592,8.5592,0,0,1-1.4916-1.574l-2.5191-2.6586A9.4156,9.4156,0,0,0,78.0419,40.02l1.205,1.2811A9.7234,9.7234,0,0,0,81.8683,42.97V41.7372a8.4669,8.4669,0,0,1-1.1742-.7169"/><rect class="cls-2" x="2.3751" y="17.7569" width="89.2028" height="0.6171"/><path class="cls-3" d="M6.4309,2.41A2.5443,2.5443,0,0,0,4.17,1.0945,2.0943,2.0943,0,0,0,2.0712,3.2225c0,1.1674,1.1083,1.6552,2.01,2.0836L6.2091,6.4146A2.434,2.434,0,0,1,7.48,8.6313a3.4081,3.4081,0,0,1-3.4877,3.2366A3.442,3.442,0,0,1,.7116,9.4737l.6208-.2807a2.8335,2.8335,0,0,0,2.69,2.01A2.71,2.71,0,0,0,6.7707,8.5721c0-1.2562-1.2857-1.788-2.2463-2.2609l-2.01-1.064A2.2322,2.2322,0,0,1,1.3618,3.252,2.7237,2.7237,0,0,1,4.2141.4294,3.1231,3.1231,0,0,1,6.9332,1.9958Z"/><path class="cls-3" d="M9.9895,8.055,8.4969,11.72h-.724L12.4428.2078,17.0979,11.72h-.7242L14.881,8.055Zm2.4533-6.0443L10.2556,7.39h4.36Z"/><path class="cls-3" d="M23.8808,11.72h-.813L19.4325,6.4441h-.3547V11.72h-.7094V.5771h1.389a4.0976,4.0976,0,0,1,2.5418.5617,2.7977,2.7977,0,0,1,1.1231,2.394c0,1.9361-1.3448,2.941-3.1921,2.9114ZM19.9793,5.779A2.78,2.78,0,0,0,21.93,5.2618a2.23,2.23,0,0,0,.7833-1.7586,2.1276,2.1276,0,0,0-1.1823-2.01,4.7669,4.7669,0,0,0-1.995-.2513h-.4581V5.779Z"/><path class="cls-3" d="M26.6735,8.055,25.1809,11.72h-.724L29.1268.2078,33.7819,11.72h-.7242L31.565,8.055Zm2.4533-6.0443L26.94,7.39h4.36Z"/><path class="cls-3" d="M42.53,5.3061V.5771H43.24V11.72H42.53V5.9712H35.762V11.72h-.7094V.5771h.7094v4.729Z"/><path class="cls-3" d="M53.0057,11.0549h2.8374V11.72H52.2964V.5771h.7094Z"/><path class="cls-3" d="M67.1876,6.1485a5.7786,5.7786,0,0,1-11.5566,0,5.7786,5.7786,0,0,1,11.5566,0Zm-10.8473,0a5.069,5.069,0,0,0,10.1379,0,5.069,5.069,0,0,0-10.1379,0Z"/><path class="cls-3" d="M75.67.5771h.7094V7.5229a4.3424,4.3424,0,0,1-.7538,3.0444,4.1788,4.1788,0,0,1-6.059,0,4.3433,4.3433,0,0,1-.7536-3.0444V.5771h.7094V7.3159a4.5412,4.5412,0,0,0,.5763,2.808,3.43,3.43,0,0,0,4.9949,0,4.54,4.54,0,0,0,.5765-2.808Z"/><path class="cls-3" d="M79.3789,11.72H78.67V.5771h.7094Z"/><path class="cls-3" d="M86.5141,2.41A2.5443,2.5443,0,0,0,84.253,1.0945a2.0943,2.0943,0,0,0-2.0986,2.1281c0,1.1674,1.1083,1.6552,2.01,2.0836l2.1281,1.1085a2.434,2.434,0,0,1,1.271,2.2166,3.4744,3.4744,0,0,1-6.7685.8424l.6208-.2807a2.8335,2.8335,0,0,0,2.69,2.01A2.71,2.71,0,0,0,86.854,8.5721c0-1.2562-1.2857-1.788-2.2463-2.2609l-2.01-1.064A2.2322,2.2322,0,0,1,81.445,3.252,2.7237,2.7237,0,0,1,84.2973.4294a3.1231,3.1231,0,0,1,2.7192,1.5664Z"/><path class="cls-3" d="M89.6884,1.2422V5.2915H94.181v.6651H89.6884v5.0983h4.6108V11.72h-5.32V.5771h5.32v.6651Z"/><path class="cls-1" d="M8.9915,40.5982a8.3049,8.3049,0,0,1-5.69,1.7778H1.1729v-16.24h2.129a8.2933,8.2933,0,0,1,5.69,1.7676,9.7229,9.7229,0,0,1,.8644-.8251,9.2261,9.2261,0,0,0-6.53-2.0432H0V43.4766H3.326a9.2221,9.2221,0,0,0,6.52-2.061,9.7549,9.7549,0,0,1-.8546-.8175"/><path class="cls-1" d="M9.8147,28.6925a8.3377,8.3377,0,0,1-.0068,11.1188,8.6377,8.6377,0,0,0,.85.8229A9.2972,9.2972,0,0,0,13.109,34.28a9.3911,9.3911,0,0,0-2.4375-6.4149,8.6053,8.6053,0,0,0-.8567.8272"/><path class="cls-1" d="M9.8147,28.6925c-.1725-.1906-.3529-.3753-.5457-.5516-.0917-.0828-.1843-.1606-.2773-.2375a9.2717,9.2717,0,0,0,0,12.6949c.1678-.14.3339-.287.4971-.448.11-.11.2164-.224.32-.339a8.236,8.236,0,0,1,.0068-11.1188"/><path class="cls-1" d="M16.0408,24.79a9.5609,9.5609,0,0,0-6.1845,2.2879c.1061.09.2126.1822.3183.28.1741.1631.3377.3335.4971.5068a8.336,8.336,0,0,1,5.3692-1.9739,8.3645,8.3645,0,1,1,0,16.7288,8.3371,8.3371,0,0,1-5.3831-1.9857c-.1247.1348-.2528.2675-.3863.3965-.1412.1357-.2828.2629-.4256.3851A9.4933,9.4933,0,1,0,16.0408,24.79"/><path class="cls-1" d="M8.9918,27.9035c.093.0765.1856.1547.2773.2375.1923.1762.3732.361.5457.5516a8.6054,8.6054,0,0,1,.8568-.8272c-.1589-.1737-.3229-.3441-.4971-.5068-.1057-.0981-.2118-.19-.3183-.2807a9.7821,9.7821,0,0,0-.8644.8254"/><path class="cls-1" d="M10.6579,40.6343a8.589,8.589,0,0,1-.85-.8234c-.1031.1154-.2092.2291-.3191.339-.1636.1611-.33.3081-.4975.4485a9.8839,9.8839,0,0,0,.8546.8175c.1424-.1222.2845-.2494.4252-.3851.134-.1285.2621-.2616.3867-.3965"/><polygon class="cls-1" points="45.768 40.884 38.87 24.106 31.973 40.884 26.788 25.035 25.615 25.035 31.778 44.088 38.797 27.041 45.841 44.088 52.054 25.035 50.88 25.035 45.768 40.884"/><polygon class="cls-1" points="54.95 25.035 53.776 25.035 53.776 43.476 59.646 43.476 59.646 42.376 54.95 42.376 54.95 25.035"/><rect class="cls-1" x="61.8502" y="25.0353" width="1.1742" height="18.4411"/><path class="cls-1" d="M80.3171,40.73l-1.4916-1.574a8.5588,8.5588,0,0,0,1.4916,1.574"/><path class="cls-1" d="M65.2121,24.79V43.4764h1.1742V27.6276L78.0418,40.02a9.4126,9.4126,0,0,1-1.7355-3.5221Z"/><path class="cls-1" d="M80.6942,41.02a8.4669,8.4669,0,0,0,1.1742.7169V26.8191a8.6765,8.6765,0,0,0-1.1742.7376Z"/><path class="cls-1" d="M77.21,34.2555a8.4927,8.4927,0,0,1,3.4841-6.6989V26.4758h1.1742v.3432a8.004,8.004,0,0,1,3.7064-.9277,8.4468,8.4468,0,0,1,7.1173,3.9621l.954-.7587A9.7327,9.7327,0,0,0,85.6481,24.79a9.5831,9.5831,0,0,0-9.6124,9.5388,8.9215,8.9215,0,0,0,.2705,2.1687l2.5191,2.6586A8.2913,8.2913,0,0,1,77.21,34.2555"/><path class="cls-1" d="M94.4284,34.598H86.6512v1.1006h6.603a6.1505,6.1505,0,0,1-2.25,4.8916,8.8045,8.8045,0,0,1-5.4292,2.03,8.2246,8.2246,0,0,1-3.7064-.8834V42.97a9.2173,9.2173,0,0,0,3.6328.7511,9.6549,9.6549,0,0,0,6.9956-2.984,8.1275,8.1275,0,0,0,1.9316-6.1389"/><path class="cls-1" d="M79.2469,41.3011,78.0419,40.02a9.8154,9.8154,0,0,0,1.205,1.2811"/><path class="cls-1" d="M80.6942,41.1284v-.1078c-.1281-.0934-.2545-.19-.377-.29Z"/><path class="cls-1" d="M80.6942,26.476v1.0808a8.6409,8.6409,0,0,1,1.1742-.738V26.476Z"/><path class="cls-1" d="M80.6942,41.02v.1078l-.377-.3977a8.5592,8.5592,0,0,1-1.4916-1.574l-2.5191-2.6586A9.4156,9.4156,0,0,0,78.0419,40.02l1.205,1.2811A9.7234,9.7234,0,0,0,81.8683,42.97V41.7372a8.4669,8.4669,0,0,1-1.1742-.7169"/><rect class="cls-2" x="2.3751" y="17.7569" width="89.2028" height="0.6171"/><path class="cls-1" d="M8.9915,40.5982a8.3049,8.3049,0,0,1-5.69,1.7778H1.1729v-16.24h2.129a8.2933,8.2933,0,0,1,5.69,1.7676,9.7229,9.7229,0,0,1,.8644-.8251,9.2261,9.2261,0,0,0-6.53-2.0432H0V43.4766H3.326a9.2221,9.2221,0,0,0,6.52-2.061,9.7549,9.7549,0,0,1-.8546-.8175"/><path class="cls-1" d="M9.8147,28.6925a8.3377,8.3377,0,0,1-.0068,11.1188,8.6377,8.6377,0,0,0,.85.8229A9.2972,9.2972,0,0,0,13.109,34.28a9.3911,9.3911,0,0,0-2.4375-6.4149,8.6053,8.6053,0,0,0-.8567.8272"/><path class="cls-1" d="M9.8147,28.6925c-.1725-.1906-.3529-.3753-.5457-.5516-.0917-.0828-.1843-.1606-.2773-.2375a9.2717,9.2717,0,0,0,0,12.6949c.1678-.14.3339-.287.4971-.448.11-.11.2164-.224.32-.339a8.236,8.236,0,0,1,.0068-11.1188"/><path class="cls-1" d="M16.0408,24.79a9.5609,9.5609,0,0,0-6.1845,2.2879c.1061.09.2126.1822.3183.28.1741.1631.3377.3335.4971.5068a8.336,8.336,0,0,1,5.3692-1.9739,8.3645,8.3645,0,1,1,0,16.7288,8.3371,8.3371,0,0,1-5.3831-1.9857c-.1247.1348-.2528.2675-.3863.3965-.1412.1357-.2828.2629-.4256.3851A9.4933,9.4933,0,1,0,16.0408,24.79"/><path class="cls-1" d="M8.9918,27.9035c.093.0765.1856.1547.2773.2375.1923.1762.3732.361.5457.5516a8.6054,8.6054,0,0,1,.8568-.8272c-.1589-.1737-.3229-.3441-.4971-.5068-.1057-.0981-.2118-.19-.3183-.2807a9.7821,9.7821,0,0,0-.8644.8254"/><path class="cls-1" d="M10.6579,40.6343a8.589,8.589,0,0,1-.85-.8234c-.1031.1154-.2092.2291-.3191.339-.1636.1611-.33.3081-.4975.4485a9.8839,9.8839,0,0,0,.8546.8175c.1424-.1222.2845-.2494.4252-.3851.134-.1285.2621-.2616.3867-.3965"/><polygon class="cls-1" points="45.768 40.884 38.87 24.106 31.973 40.884 26.788 25.035 25.615 25.035 31.778 44.088 38.797 27.041 45.841 44.088 52.054 25.035 50.88 25.035 45.768 40.884"/><polygon class="cls-1" points="54.95 25.035 53.776 25.035 53.776 43.476 59.646 43.476 59.646 42.376 54.95 42.376 54.95 25.035"/><rect class="cls-1" x="61.8502" y="25.0353" width="1.1742" height="18.4411"/><path class="cls-1" d="M80.3171,40.73l-1.4916-1.574a8.5588,8.5588,0,0,0,1.4916,1.574"/><path class="cls-1" d="M65.2121,24.79V43.4764h1.1742V27.6276L78.0418,40.02a9.4126,9.4126,0,0,1-1.7355-3.5221Z"/><path class="cls-1" d="M80.6942,41.02a8.4669,8.4669,0,0,0,1.1742.7169V26.8191a8.6765,8.6765,0,0,0-1.1742.7376Z"/><path class="cls-1" d="M77.21,34.2555a8.4927,8.4927,0,0,1,3.4841-6.6989V26.4758h1.1742v.3432a8.004,8.004,0,0,1,3.7064-.9277,8.4468,8.4468,0,0,1,7.1173,3.9621l.954-.7587A9.7327,9.7327,0,0,0,85.6481,24.79a9.5831,9.5831,0,0,0-9.6124,9.5388,8.9215,8.9215,0,0,0,.2705,2.1687l2.5191,2.6586A8.2913,8.2913,0,0,1,77.21,34.2555"/><path class="cls-1" d="M94.4284,34.598H86.6512v1.1006h6.603a6.1505,6.1505,0,0,1-2.25,4.8916,8.8045,8.8045,0,0,1-5.4292,2.03,8.2246,8.2246,0,0,1-3.7064-.8834V42.97a9.2173,9.2173,0,0,0,3.6328.7511,9.6549,9.6549,0,0,0,6.9956-2.984,8.1275,8.1275,0,0,0,1.9316-6.1389"/><path class="cls-1" d="M79.2469,41.3011,78.0419,40.02a9.8154,9.8154,0,0,0,1.205,1.2811"/><path class="cls-1" d="M80.6942,41.1284v-.1078c-.1281-.0934-.2545-.19-.377-.29Z"/><path class="cls-1" d="M80.6942,26.476v1.0808a8.6409,8.6409,0,0,1,1.1742-.738V26.476Z"/><path class="cls-1" d="M80.6942,41.02v.1078l-.377-.3977a8.5592,8.5592,0,0,1-1.4916-1.574l-2.5191-2.6586A9.4156,9.4156,0,0,0,78.0419,40.02l1.205,1.2811A9.7234,9.7234,0,0,0,81.8683,42.97V41.7372a8.4669,8.4669,0,0,1-1.1742-.7169"/><rect class="cls-2" x="2.3751" y="17.7569" width="89.2028" height="0.6171"/><path class="cls-3" d="M6.4309,2.41A2.5443,2.5443,0,0,0,4.17,1.0945,2.0943,2.0943,0,0,0,2.0712,3.2225c0,1.1674,1.1083,1.6552,2.01,2.0836L6.2091,6.4146A2.434,2.434,0,0,1,7.48,8.6313a3.4081,3.4081,0,0,1-3.4877,3.2366A3.442,3.442,0,0,1,.7116,9.4737l.6208-.2807a2.8335,2.8335,0,0,0,2.69,2.01A2.71,2.71,0,0,0,6.7707,8.5721c0-1.2562-1.2857-1.788-2.2463-2.2609l-2.01-1.064A2.2322,2.2322,0,0,1,1.3618,3.252,2.7237,2.7237,0,0,1,4.2141.4294,3.1231,3.1231,0,0,1,6.9332,1.9958Z"/><path class="cls-3" d="M9.9895,8.055,8.4969,11.72h-.724L12.4428.2078,17.0979,11.72h-.7242L14.881,8.055Zm2.4533-6.0443L10.2556,7.39h4.36Z"/><path class="cls-3" d="M23.8808,11.72h-.813L19.4325,6.4441h-.3547V11.72h-.7094V.5771h1.389a4.0976,4.0976,0,0,1,2.5418.5617,2.7977,2.7977,0,0,1,1.1231,2.394c0,1.9361-1.3448,2.941-3.1921,2.9114ZM19.9793,5.779A2.78,2.78,0,0,0,21.93,5.2618a2.23,2.23,0,0,0,.7833-1.7586,2.1276,2.1276,0,0,0-1.1823-2.01,4.7669,4.7669,0,0,0-1.995-.2513h-.4581V5.779Z"/><path class="cls-3" d="M26.6735,8.055,25.1809,11.72h-.724L29.1268.2078,33.7819,11.72h-.7242L31.565,8.055Zm2.4533-6.0443L26.94,7.39h4.36Z"/><path class="cls-3" d="M42.53,5.3061V.5771H43.24V11.72H42.53V5.9712H35.762V11.72h-.7094V.5771h.7094v4.729Z"/><path class="cls-3" d="M53.0057,11.0549h2.8374V11.72H52.2964V.5771h.7094Z"/><path class="cls-3" d="M67.1876,6.1485a5.7786,5.7786,0,0,1-11.5566,0,5.7786,5.7786,0,0,1,11.5566,0Zm-10.8473,0a5.069,5.069,0,0,0,10.1379,0,5.069,5.069,0,0,0-10.1379,0Z"/><path class="cls-3" d="M75.67.5771h.7094V7.5229a4.3424,4.3424,0,0,1-.7538,3.0444,4.1788,4.1788,0,0,1-6.059,0,4.3433,4.3433,0,0,1-.7536-3.0444V.5771h.7094V7.3159a4.5412,4.5412,0,0,0,.5763,2.808,3.43,3.43,0,0,0,4.9949,0,4.54,4.54,0,0,0,.5765-2.808Z"/><path class="cls-3" d="M79.3789,11.72H78.67V.5771h.7094Z"/><path class="cls-3" d="M86.5141,2.41A2.5443,2.5443,0,0,0,84.253,1.0945a2.0943,2.0943,0,0,0-2.0986,2.1281c0,1.1674,1.1083,1.6552,2.01,2.0836l2.1281,1.1085a2.434,2.434,0,0,1,1.271,2.2166,3.4744,3.4744,0,0,1-6.7685.8424l.6208-.2807a2.8335,2.8335,0,0,0,2.69,2.01A2.71,2.71,0,0,0,86.854,8.5721c0-1.2562-1.2857-1.788-2.2463-2.2609l-2.01-1.064A2.2322,2.2322,0,0,1,81.445,3.252,2.7237,2.7237,0,0,1,84.2973.4294a3.1231,3.1231,0,0,1,2.7192,1.5664Z"/><path class="cls-3" d="M89.6884,1.2422V5.2915H94.181v.6651H89.6884v5.0983h4.6108V11.72h-5.32V.5771h5.32v.6651Z"/></g></g></svg>