<svg xmlns="http://www.w3.org/2000/svg" width="15.5" height="15.5" viewBox="0 0 15.5 15.5"><defs><style>.cls-1{fill:#f3776c;}</style></defs><title>Asset 7</title><g id="Layer_2" data-name="Layer 2"><g id="reverse_side" data-name="reverse side"><path class="cls-1" d="M7.75,0A7.75,7.75,0,1,0,15.5,7.75,7.75,7.75,0,0,0,7.75,0Zm0,14.2083A6.4583,6.4583,0,1,1,14.2083,7.75,6.4579,6.4579,0,0,1,7.75,14.2083Z"/><circle class="cls-1" cx="5.4896" cy="6.1354" r="0.9688"/><circle class="cls-1" cx="10.0104" cy="6.1354" r="0.9688"/><path class="cls-1" d="M7.75,12.2708a4.5163,4.5163,0,0,0,4.0806-2.5833H3.6694A4.5163,4.5163,0,0,0,7.75,12.2708Zm2.8652-1.9375a3.8237,3.8237,0,0,1-5.73,0Z"/></g></g></svg>