<svg xmlns="http://www.w3.org/2000/svg" width="143" height="138" viewBox="0 0 143 138"><style type="text/css">.st0{fill:#5abf8d;} .st1{fill-rule:evenodd;clip-rule:evenodd;fill:#5abf8d;} .st2{fill:none;}</style><path class="st0" d="M119.1 5.6h-95.2c-9.3 0-16.9 7.6-16.9 16.9v93c0 9.3 7.6 16.9 16.9 16.9h95.2c9.3 0 16.9-7.6 16.9-16.9v-93c0-9.3-7.6-16.9-16.9-16.9zm-12.9 46.2l.1 2.2c0 22.9-17.5 49.4-49.4 49.4-9.8 0-18.9-2.9-26.6-7.8 1.4.2 2.7.2 4.1.2 8.1 0 15.6-2.8 21.5-7.4-7.6-.1-14-5.2-16.2-12.1 1.1.2 2.1.3 3.3.3 1.6 0 3.1-.2 4.6-.6-7.9-1.6-13.9-8.6-13.9-17v-.2c2.3 1.3 5 2.1 7.9 2.2-4.6-3.1-7.7-8.4-7.7-14.4 0-3.2.9-6.2 2.3-8.7 8.6 10.4 21.3 17.3 35.8 18-.3-1.3-.5-2.6-.5-4 0-9.6 7.8-17.3 17.4-17.3 5 0 9.5 2.1 12.7 5.5 4-.8 7.7-2.2 11-4.2-1.3 4-4 7.5-7.6 9.6 3.5-.4 6.8-1.4 10-2.7-2.5 3.5-5.4 6.5-8.8 9z"/></svg>